<?xml version="1.0" encoding="utf-8"?>
<!-- Generator: Adobe Illustrator 24.2.0, SVG Export Plug-In . SVG Version: 6.00 Build 0)  -->
<svg version="1.1" id="Layer_1" xmlns="http://www.w3.org/2000/svg" xmlns:xlink="http://www.w3.org/1999/xlink" x="0px" y="0px"
	 viewBox="0 0 512 512" style="enable-background:new 0 0 512 512;" xml:space="preserve">
<style type="text/css">
	.st0{fill:#4EB748;}
	.st1{fill:#EC1D24;}
	.st2{fill:#FFFFFF;}
	.st3{fill:#50C5DF;}
	.st4{fill:#9BAAB3;}
	.st5{fill:#231F20;}
	.st6{fill:#2D3091;}
</style>
<g>
	<g>
		<path class="st0" d="M0.15,255.98C85.43,170.71,170.69,85.41,255.99,0.15c85.32,85.26,170.62,170.53,255.86,255.87
			C426.58,341.3,341.3,426.58,256.01,511.85C170.69,426.6,85.4,341.31,0.15,255.98z M243.94,70.05
			c-3.83,17.83,1.84,35.66,5.97,52.89c1.21,6,2.98,12.55,0.49,18.45c-3.14,6.41-12.47,7.28-17.6,2.85
			c-2.88-2.8-1.97-7.27-1.18-10.76c2.91-10.62,8.11-21.26,6.2-32.55c-0.94-6.37-4.92-11.7-9.49-16.01c0.7,3.29,1.13,6.78-0.11,10
			c-2.89,8.22-8.44,15.11-12.51,22.73c-4.11,7.39-7.54,16.01-5.49,24.57c1.99,8.51,8.57,14.95,15.42,19.91
			c-11.41,0.39-22.86,0.19-34.24,1.28c-10.74-0.43-22.01-0.15-31.98-4.81c-3.66-1.6-6.44-4.56-8.95-7.57
			c3.17,42.98,5.93,85.99,9.03,128.97c1.89,3.01,5.62,4.39,8.87,5.54c10.81,2.98,22.16,1.63,33.18,0.89
			c-2.43,2.94-4.87,5.92-7.74,8.45c-6.82-1.12-13.34-3.68-20.08-5.21c-2.71,11.28-5.21,22.61-7.6,33.96
			c5.03,0.97,10.01,2.18,15,3.35c0.07,3.94,0.12,7.88-0.12,11.82c-4.98,2.17-9.9,4.49-14.89,6.63c2.48,10.28,5.67,20.36,8.1,30.65
			c5.87-3.38,11.53-7.11,17.51-10.3c3.12,4.78,6.33,9.5,9.46,14.27c-4.96,3.87-10.36,7.16-15.08,11.32
			c9.01,7.07,17.39,14.91,26.44,21.91c3.41-5.2,7.27-10.07,10.8-15.18c5.07,1.53,10.08,3.23,15.15,4.77c0.2,5.29,0.16,10.6,0,15.9
			c2.5,0.05,5,0.07,7.5,0.09c0.2,6.1,0.42,12.2,0.71,18.3c-5.69,2.48-10.85,7.37-11.21,13.92c-1.41,9.29,7.1,18.37,16.48,17.46
			c9.67,0.04,17.31-10.39,14.63-19.61c-1.21-5.49-5.68-9.38-10.61-11.6c0.75-0.03,2.26-0.08,3.01-0.11
			c0.1-6.03,0.42-12.05,0.46-18.08c3.86-0.49,7.75-0.35,11.62-0.18c-0.74-4.64-1.39-9.3-2.13-13.94c5.34-2.63,10.44-5.93,16.01-8
			c4.38,4.58,8,9.85,12.58,14.24c7.07-7.68,15.45-14.04,22.44-21.77c-4.66-3.41-9.02-7.2-13.62-10.67
			c3.09-3.94,6.15-7.93,9.53-11.62c5.19,2.41,10.05,5.47,15.14,8.1c3.32-10.38,6.71-20.75,9.6-31.25
			c-5.95-1.2-11.84-2.68-17.75-4.03c-0.1-3.91-0.11-7.82,0.05-11.73c5.19-1.42,10.24-3.35,15.52-4.45
			c-2.75-10.42-6.68-20.53-10.19-30.73c-5.5,2.25-10.99,4.49-16.43,6.88c-2.72-3.72-5.55-7.35-7.95-11.28
			c4.07-0.72,8.4,0.93,12.3-0.59c10.56-0.63,21.16-1.86,31.42-4.46c0.8-12.56,2.32-25.06,3.39-37.6c2.99-31.09,5.78-62.2,8.9-93.28
			c-5.01,4.89-10.89,9.15-17.88,10.58c-13.22,2.88-26.71,0.05-39.95-1.16c-4.98-0.57-10-0.64-14.97-1.31
			c6.33-3.4,12.96-7.82,15.5-14.89c2.56-7.65-0.74-15.57-4.06-22.42c-6.03-12.18-14.15-23.89-15.71-37.72
			c-0.69-4.77,0.37-9.51,1.1-14.2c-3.72,5.03-5.86,11.15-6.3,17.37c-1.1,13.15,4.32,25.5,6.84,38.14c0.82,4.14,0.9,9.68-3.3,12.02
			c-3.29,1.6-8.32,3.04-10.95-0.46c-2.06-3.64-0.19-7.89,0.6-11.65c2.71-9.28,4.04-19.66-0.2-28.71c-2.88-7.33-10.06-12.09-12-19.88
			c-3.79-13.26,0.72-26.93,5.34-39.36C254.24,46.97,246.39,57.62,243.94,70.05z"/>
	</g>
	<path class="st0" d="M226.13,143.08c5.62,4.59,11.18,10.46,18.9,10.92c4.18,3.44,8.02,8.52,13.98,8.55
		c5.19-0.11,8.54-4.64,11.3-8.46c1.4,1.5,2.78,3.03,4.13,4.58c-2.04,1.86-3.8,4.15-6.28,5.45c-2.99,1.1-5.9,2.41-8.7,3.93
		c-0.29,0.15-0.87,0.44-1.16,0.59c-3.78-2.66-8.45-3.09-12.87-3.8c-4.9-3.01-9.7-6.37-13.95-10.28
		C228.27,151.61,225.75,147.61,226.13,143.08z"/>
	<path class="st0" d="M201.2,324.93c3.64-20.35,20.63-38.15,41.3-41.2c0.86,34.13,1.92,68.26,2.67,102.39
		c-13.48-1.9-26.09-9.24-34.28-20.13C202.13,354.47,198.35,339.16,201.2,324.93z"/>
	<path class="st0" d="M264.88,286.54c2.37,0.2,4.74,0.37,7.11,0.67c2.73,0.53,5.37,1.54,7.74,3.01
		c12.14,7.54,21.07,20.17,23.73,34.25c2.71,13.39-0.21,27.75-7.84,39.06c-7.86,11.81-20.65,19.85-34.53,22.5
		C262.1,352.86,263.49,319.69,264.88,286.54z"/>
</g>
<g>
	<g>
		<path class="st1" d="M243.94,70.05c2.45-12.43,10.3-23.08,20.02-30.92c-4.62,12.43-9.13,26.1-5.34,39.36
			c1.94,7.79,9.12,12.55,12,19.88c4.24,9.05,2.91,19.43,0.2,28.71c-0.79,3.76-2.66,8.01-0.6,11.65c2.63,3.5,7.66,2.06,10.95,0.46
			c4.2-2.34,4.12-7.88,3.3-12.02c-2.52-12.64-7.94-24.99-6.84-38.14c0.44-6.22,2.58-12.34,6.3-17.37c-0.73,4.69-1.79,9.43-1.1,14.2
			c1.56,13.83,9.68,25.54,15.71,37.72c3.32,6.85,6.62,14.77,4.06,22.42c-2.54,7.07-9.17,11.49-15.5,14.89
			c-4.72,2.29-9.64,4.12-14.61,5.76c-3.58,1.07-6.38,3.66-9.73,5.22c-2.5,1.19-5.21,1.82-7.88,2.48c-2.23-0.6-4.54-0.6-6.78-0.08
			c-8.71-1.43-15.45-7.3-22.46-12.14c-6.85-4.96-13.43-11.4-15.42-19.91c-2.05-8.56,1.38-17.18,5.49-24.57
			c4.07-7.62,9.62-14.51,12.51-22.73c1.24-3.22,0.81-6.71,0.11-10c4.57,4.31,8.55,9.64,9.49,16.01c1.91,11.29-3.29,21.93-6.2,32.55
			c-0.79,3.49-1.7,7.96,1.18,10.76c5.13,4.43,14.46,3.56,17.6-2.85c2.49-5.9,0.72-12.45-0.49-18.45
			C245.78,105.71,240.11,87.88,243.94,70.05z M226.13,143.08c-0.38,4.53,2.14,8.53,5.35,11.48c4.25,3.91,9.05,7.27,13.95,10.28
			c3.58,2.91,8.33,3.97,12.87,3.8c0.29-0.15,0.87-0.44,1.16-0.59c3.27-0.21,6.27-1.79,8.7-3.93c2.48-1.3,4.24-3.59,6.28-5.45
			c-1.35-1.55-2.73-3.08-4.13-4.58c-2.76,3.82-6.11,8.35-11.3,8.46c-5.96-0.03-9.8-5.11-13.98-8.55
			C237.31,153.54,231.75,147.67,226.13,143.08z"/>
	</g>
</g>
<g>
	<g>
		<path class="st2" d="M150.47,151.03c2.51,3.01,5.29,5.97,8.95,7.57c9.97,4.66,21.24,4.38,31.98,4.81
			c16.45,18.68,32.65,37.6,49.35,56.06c0.58,21.35,1.09,42.7,1.73,64.05c-13.71-0.4-27.32,1.57-40.93,2.91
			c-11.02,0.74-22.37,2.09-33.18-0.89c-3.25-1.15-6.98-2.53-8.87-5.54C156.4,237.02,153.64,194.01,150.47,151.03z M170.04,200.11
			c-0.58,3.51,1.48,8.18-1.5,10.82c0.05,0.52,0.16,1.56,0.22,2.09c2.16,4,1.07,8.64,1.2,12.98c4.08-0.07,8.17,0.14,12.25-0.05
			c4.63-0.67,7.5-5.16,8.05-9.51c0.69-4.9,0.49-10.75-3.4-14.34C181.93,198.76,175.6,200.56,170.04,200.11z M195.32,200.16
			c0.05,8.61,0.13,17.22-0.05,25.83c1.66,0.01,3.32,0.02,4.98,0.04c-0.02-3.9-0.02-7.8,0-11.69c3.19,0,6.38,0,9.58-0.03
			c0.06,3.9,0.04,7.8,0.03,11.7c1.71,0,3.43-0.01,5.15-0.01c-0.28-8.62-0.08-17.24-0.12-25.86c-1.67-0.04-3.35-0.09-5.01-0.15
			c-0.01,3.34-0.01,6.67-0.02,10.01c-3.22-0.01-6.43-0.01-9.65-0.05c0.04-3.32,0.04-6.64,0.03-9.95
			C198.59,200.05,196.96,200.11,195.32,200.16z M174.22,246.19c-5.2,1.46-6.6,8.93-3.06,12.67c3.36,2.23,7.6,2.22,11.23,3.81
			c2.38,0.77,1.89,4.58-0.39,5.14c-2.56,0.93-6.6,1.03-7.82-1.95c-0.62-2.62-3.54-1.6-5.47-1.94c0.29,2.61,1,5.46,3.34,7
			c3.46,2.25,8.07,2.32,11.89,1c4.74-1.61,6.28-8.37,3.24-12.13c-3.44-3.44-9.03-2.44-12.87-5.08c-2.54-6.06,9-6.48,8.92-0.71
			c1.65,0,3.31-0.01,4.97-0.03c-0.63-2.21-1.08-4.72-2.97-6.25C182.22,245.19,177.84,245.21,174.22,246.19z M193.74,246.17
			c-0.14,8.65,0,17.29-0.08,25.94c1.66-0.06,3.32-0.09,4.99-0.15c-0.12-3.07-0.13-6.14-0.1-9.21c2.98-0.06,6.05,0.29,8.95-0.57
			c6.2-2.32,6.44-13.26,0.01-15.45C202.99,245.77,198.32,246.5,193.74,246.17z"/>
	</g>
	<path class="st2" d="M219.28,183.01c22.18,0.01,44.37,0,66.55,0.01c-2.29,2.46-4.68,4.83-7.11,7.16c0-0.59-0.01-1.78-0.02-2.37
		c-17.5-0.13-35-0.01-52.5-0.06c0.01,0.61,0.04,1.84,0.05,2.45C223.89,187.84,221.54,185.46,219.28,183.01z"/>
	<path class="st2" d="M232.98,196.59c12.91,0,25.83-0.01,38.74,0c-0.42,0.59-1.27,1.78-1.7,2.37c-11.87-0.02-23.75,0.07-35.63-0.06
		C234.04,198.32,233.33,197.17,232.98,196.59z"/>
	<path class="st2" d="M292.37,200.21c1.75-0.08,3.49-0.16,5.24-0.24c0.16,3.33,0.11,6.67,0,10c3.64-2.71,6.21-6.53,9.23-9.86
		c2.17-0.02,4.35-0.03,6.53-0.01c-3.06,3.77-6.62,7.08-9.82,10.73c3.55,5.02,7,10.11,10.47,15.18c-2.24-0.01-4.47-0.04-6.7-0.1
		c-2.3-3.5-4.43-7.11-6.9-10.48c-1.29-0.86-1.85,0.75-2.41,1.62c-0.67,2.92-0.2,5.97-0.23,8.94c-1.83-0.04-3.65-0.09-5.46-0.14
		C292.53,217.31,292.44,208.76,292.37,200.21z"/>
	<path class="st2" d="M315.35,200.18c6.68-0.2,13.35-0.02,20.03-0.12c0.04,1.54,0.08,3.08,0.14,4.63c-2.51,0.07-5.02,0.1-7.53,0.12
		c0,7.06-0.01,14.12,0.01,21.18c-1.7,0-3.4,0-5.09,0c0.04-7.06-0.05-14.13,0.07-21.19c-2.52-0.01-5.03-0.03-7.54-0.04
		C315.41,203.23,315.38,201.7,315.35,200.18z"/>
	<path class="st2" d="M175,204.49c3.32,0.06,8.01-0.76,9.62,3.03c1.34,3.85,1.43,8.57-0.82,12.09c-1.94,2.93-5.78,1.9-8.73,2.14
		c-0.05-2.39-0.06-4.77-0.07-7.15c1.85,0,3.7,0.02,5.55,0.04c-0.01-1.48,0-2.96,0.01-4.43c-1.86,0-3.71,0-5.55,0.01
		C175,208.31,175,206.39,175,204.49z"/>
	<path class="st2" d="M248.03,207.14c3.32,0.01,6.64,0.01,9.97-0.02c0,3.46-0.04,6.92-0.04,10.38c-1.72,0.05-3.42,0.11-5.13,0.17
		c0.06,67.06,0.02,134.12,0.02,201.18c-1.61-0.01-3.22-0.01-4.82,0C248,348.28,248.02,277.71,248.03,207.14z"/>
	<path class="st2" d="M290.13,246.19c1.86-0.01,3.73-0.03,5.59-0.04c1.63,6.14,3.24,12.28,4.85,18.43
		c2.95-5.75,3.63-12.39,5.68-18.49c1.78,0.07,3.57,0.15,5.36,0.24c-2.82,8.15-5.25,16.43-7.95,24.62c-0.62,2.23-3.64,0.75-5.35,1.12
		C295.7,263.41,292.94,254.79,290.13,246.19z"/>
	<path class="st2" d="M315.77,246.13c1.7,0,3.41,0.01,5.11,0.03c0.05,7.05,0.03,14.11,0.01,21.16c4,0.03,7.99,0.04,11.99-0.06
		c0.04,1.62,0.09,3.24,0.13,4.86c-5.76,0.02-11.52,0.04-17.28-0.01C315.73,263.45,315.64,254.79,315.77,246.13z"/>
	<path class="st2" d="M264.88,286.54c0.25-12.61,1.06-25.18,1.36-37.78c11.23,13.11,22.98,25.78,33.96,39.1
		c5.29,0.96,10.66,0.36,15.99,0.26c-3.9,1.52-8.23-0.13-12.3,0.59c-10.65,0.1-21.3-0.54-31.9-1.5
		C269.62,286.91,267.25,286.74,264.88,286.54z"/>
	<path class="st2" d="M198.56,250.55c2.71,0.22,6.26-0.69,8.25,1.69c0.25,1.84,0.72,4.29-1.08,5.52c-2.29,0.88-4.79,0.58-7.18,0.67
		C198.54,255.8,198.54,253.18,198.56,250.55z"/>
	<path class="st2" d="M242.09,453.01c-0.36-5.64,5.5-10.52,10.98-9.1c4.33,0.68,7.1,4.85,7.41,9.02c-0.5,3.38-2.25,6.78-5.57,8.13
		C249.36,463.98,242.04,459.15,242.09,453.01z"/>
</g>
<g>
	<g>
		<path class="st3" d="M342.02,163.36c6.99-1.43,12.87-5.69,17.88-10.58c-3.12,31.08-5.91,62.19-8.9,93.28
			c-1.07,12.54-2.59,25.04-3.39,37.6c-10.26,2.6-20.86,3.83-31.42,4.46c-5.33,0.1-10.7,0.7-15.99-0.26
			c-10.98-13.32-22.73-25.99-33.96-39.1c0.64-13.67,0.95-27.35,1.64-41.02c2.39,0.01,4.77,0.03,7.16,0.06c0-2.94,0-5.88,0.01-8.81
			c-1.68-0.01-3.36-0.03-5.03-0.03c0.43-0.59,1.28-1.78,1.7-2.37c2.32,0.01,4.64,0.02,6.96,0.05c0-2.16,0.03-4.31,0.04-6.46
			c2.43-2.33,4.82-4.7,7.11-7.16c2.4-0.01,4.79-0.02,7.19-0.02c0-2.44,0-4.87,0-7.31c-26.68-0.01-53.36,0.01-80.05-0.01
			c0,2.44,0,4.88,0,7.32c2.1,0,4.2,0.01,6.31,0.01c2.26,2.45,4.61,4.83,6.97,7.19c0.04,2.15,0.05,4.29,0.05,6.44
			c2.23-0.03,4.45-0.04,6.68-0.05c0.35,0.58,1.06,1.73,1.41,2.31c-0.65,0.02-1.95,0.05-2.6,0.06c-0.2,3.03-0.14,6.07-0.09,9.11
			c2.96-0.02,5.92,0,8.88,0.07c0.06,3.77,0.12,7.55,0.17,11.33c-16.7-18.46-32.9-37.38-49.35-56.06
			c11.38-1.09,22.83-0.89,34.24-1.28c7.01,4.84,13.75,10.71,22.46,12.14c2.05,1.55,4.7,1.61,6.78,0.08
			c2.67-0.66,5.38-1.29,7.88-2.48c3.35-1.56,6.15-4.15,9.73-5.22c4.97-1.64,9.89-3.47,14.61-5.76c4.97,0.67,9.99,0.74,14.97,1.31
			C315.31,163.41,328.8,166.24,342.02,163.36z M292.37,200.21c0.07,8.55,0.16,17.1-0.05,25.64c1.81,0.05,3.63,0.1,5.46,0.14
			c0.03-2.97-0.44-6.02,0.23-8.94c0.56-0.87,1.12-2.48,2.41-1.62c2.47,3.37,4.6,6.98,6.9,10.48c2.23,0.06,4.46,0.09,6.7,0.1
			c-3.47-5.07-6.92-10.16-10.47-15.18c3.2-3.65,6.76-6.96,9.82-10.73c-2.18-0.02-4.36-0.01-6.53,0.01
			c-3.02,3.33-5.59,7.15-9.23,9.86c0.11-3.33,0.16-6.67,0-10C295.86,200.05,294.12,200.13,292.37,200.21z M315.35,200.18
			c0.03,1.52,0.06,3.05,0.09,4.58c2.51,0.01,5.02,0.03,7.54,0.04c-0.12,7.06-0.03,14.13-0.07,21.19c1.69,0,3.39,0,5.09,0
			c-0.02-7.06-0.01-14.12-0.01-21.18c2.51-0.02,5.02-0.05,7.53-0.12c-0.06-1.55-0.1-3.09-0.14-4.63
			C328.7,200.16,322.03,199.98,315.35,200.18z M290.13,246.19c2.81,8.6,5.57,17.22,8.18,25.88c1.71-0.37,4.73,1.11,5.35-1.12
			c2.7-8.19,5.13-16.47,7.95-24.62c-1.79-0.09-3.58-0.17-5.36-0.24c-2.05,6.1-2.73,12.74-5.68,18.49
			c-1.61-6.15-3.22-12.29-4.85-18.43C293.86,246.16,291.99,246.18,290.13,246.19z M315.77,246.13c-0.13,8.66-0.04,17.32-0.04,25.98
			c5.76,0.05,11.52,0.03,17.28,0.01c-0.04-1.62-0.09-3.24-0.13-4.86c-4,0.1-7.99,0.09-11.99,0.06c0.02-7.05,0.04-14.11-0.01-21.16
			C319.18,246.14,317.47,246.13,315.77,246.13z"/>
	</g>
	<path class="st3" d="M259.46,168.05c2.8-1.52,5.71-2.83,8.7-3.93C265.73,166.26,262.73,167.84,259.46,168.05z"/>
	<path class="st3" d="M245.43,164.84c4.42,0.71,9.09,1.14,12.87,3.8C253.76,168.81,249.01,167.75,245.43,164.84z"/>
</g>
<g>
	<path class="st4" d="M248.1,174.27c2.24-0.52,4.55-0.52,6.78,0.08C252.8,175.88,250.15,175.82,248.1,174.27z"/>
</g>
<g>
	<path class="st5" d="M212.97,175.68c26.69,0.02,53.37,0,80.05,0.01c0,2.44,0,4.87,0,7.31c-2.4,0-4.79,0.01-7.19,0.02
		c-22.18-0.01-44.37,0-66.55-0.01c-2.11,0-4.21-0.01-6.31-0.01C212.97,180.56,212.97,178.12,212.97,175.68z"/>
	<path class="st5" d="M226.2,187.75c17.5,0.05,35-0.07,52.5,0.06c0.01,0.59,0.02,1.78,0.02,2.37c-0.01,2.15-0.04,4.3-0.04,6.46
		c-2.32-0.03-4.64-0.04-6.96-0.05c-12.91-0.01-25.83,0-38.74,0c-2.23,0.01-4.45,0.02-6.68,0.05c0-2.15-0.01-4.29-0.05-6.44
		C226.24,189.59,226.21,188.36,226.2,187.75z"/>
	<g>
		<path class="st5" d="M231.7,208.07c-0.05-3.04-0.11-6.08,0.09-9.11c0.65-0.01,1.95-0.04,2.6-0.06
			c11.88,0.13,23.76,0.04,35.63,0.06c1.67,0,3.35,0.02,5.03,0.03c-0.01,2.93-0.01,5.87-0.01,8.81c-2.39-0.03-4.77-0.05-7.16-0.06
			c-0.69,13.67-1,27.35-1.64,41.02c-0.3,12.6-1.11,25.17-1.36,37.78c-1.39,33.15-2.78,66.32-3.79,99.49
			c13.88-2.65,26.67-10.69,34.53-22.5c7.63-11.31,10.55-25.67,7.84-39.06c-2.66-14.08-11.59-26.71-23.73-34.25
			c-2.37-1.47-5.01-2.48-7.74-3.01c10.6,0.96,21.25,1.6,31.9,1.5c2.4,3.93,5.23,7.56,7.95,11.28c5.44-2.39,10.93-4.63,16.43-6.88
			c3.51,10.2,7.44,20.31,10.19,30.73c-5.28,1.1-10.33,3.03-15.52,4.45c-0.16,3.91-0.15,7.82-0.05,11.73
			c5.91,1.35,11.8,2.83,17.75,4.03c-2.89,10.5-6.28,20.87-9.6,31.25c-5.09-2.63-9.95-5.69-15.14-8.1
			c-3.38,3.69-6.44,7.68-9.53,11.62c4.6,3.47,8.96,7.26,13.62,10.67c-6.99,7.73-15.37,14.09-22.44,21.77
			c-4.58-4.39-8.2-9.66-12.58-14.24c-5.57,2.07-10.67,5.37-16.01,8c0.74,4.64,1.39,9.3,2.13,13.94c-3.87-0.17-7.76-0.31-11.62,0.18
			c-0.04,6.03-0.36,12.05-0.46,18.08c-0.75,0.03-2.26,0.08-3.01,0.11c4.93,2.22,9.4,6.11,10.61,11.6
			c2.68,9.22-4.96,19.65-14.63,19.61c-9.38,0.91-17.89-8.17-16.48-17.46c0.36-6.55,5.52-11.44,11.21-13.92
			c-0.29-6.1-0.51-12.2-0.71-18.3c-2.5-0.02-5-0.04-7.5-0.09c0.16-5.3,0.2-10.61,0-15.9c-5.07-1.54-10.08-3.24-15.15-4.77
			c-3.53,5.11-7.39,9.98-10.8,15.18c-9.05-7-17.43-14.84-26.44-21.91c4.72-4.16,10.12-7.45,15.08-11.32
			c-3.13-4.77-6.34-9.49-9.46-14.27c-5.98,3.19-11.64,6.92-17.51,10.3c-2.43-10.29-5.62-20.37-8.1-30.65
			c4.99-2.14,9.91-4.46,14.89-6.63c0.24-3.94,0.19-7.88,0.12-11.82c-4.99-1.17-9.97-2.38-15-3.35c2.39-11.35,4.89-22.68,7.6-33.96
			c6.74,1.53,13.26,4.09,20.08,5.21c2.87-2.53,5.31-5.51,7.74-8.45c13.61-1.34,27.22-3.31,40.93-2.91
			c-0.64-21.35-1.15-42.7-1.73-64.05c-0.05-3.78-0.11-7.56-0.17-11.33C237.62,208.07,234.66,208.05,231.7,208.07z M248.03,207.14
			c-0.01,70.57-0.03,141.14,0,211.71c1.6-0.01,3.21-0.01,4.82,0c0-67.06,0.04-134.12-0.02-201.18c1.71-0.06,3.41-0.12,5.13-0.17
			c0-3.46,0.04-6.92,0.04-10.38C254.67,207.15,251.35,207.15,248.03,207.14z M201.2,324.93c-2.85,14.23,0.93,29.54,9.69,41.06
			c8.19,10.89,20.8,18.23,34.28,20.13c-0.75-34.13-1.81-68.26-2.67-102.39C221.83,286.78,204.84,304.58,201.2,324.93z
			 M242.09,453.01c-0.05,6.14,7.27,10.97,12.82,8.05c3.32-1.35,5.07-4.75,5.57-8.13c-0.31-4.17-3.08-8.34-7.41-9.02
			C247.59,442.49,241.73,447.37,242.09,453.01z"/>
	</g>
</g>
<g>
	<g>
		<path class="st6" d="M170.04,200.11c5.56,0.45,11.89-1.35,16.82,1.99c3.89,3.59,4.09,9.44,3.4,14.34
			c-0.55,4.35-3.42,8.84-8.05,9.51c-4.08,0.19-8.17-0.02-12.25,0.05c-0.13-4.34,0.96-8.98-1.2-12.98c-0.06-0.53-0.17-1.57-0.22-2.09
			C171.52,208.29,169.46,203.62,170.04,200.11z M175,204.49c0,1.9,0,3.82,0.01,5.73c1.84-0.01,3.69-0.01,5.55-0.01
			c-0.01,1.47-0.02,2.95-0.01,4.43c-1.85-0.02-3.7-0.04-5.55-0.04c0.01,2.38,0.02,4.76,0.07,7.15c2.95-0.24,6.79,0.79,8.73-2.14
			c2.25-3.52,2.16-8.24,0.82-12.09C183.01,203.73,178.32,204.55,175,204.49z"/>
	</g>
	<path class="st6" d="M195.32,200.16c1.64-0.05,3.27-0.11,4.92-0.16c0.01,3.31,0.01,6.63-0.03,9.95c3.22,0.04,6.43,0.04,9.65,0.05
		c0.01-3.34,0.01-6.67,0.02-10.01c1.66,0.06,3.34,0.11,5.01,0.15c0.04,8.62-0.16,17.24,0.12,25.86c-1.72,0-3.44,0.01-5.15,0.01
		c0.01-3.9,0.03-7.8-0.03-11.7c-3.2,0.03-6.39,0.03-9.58,0.03c-0.02,3.89-0.02,7.79,0,11.69c-1.66-0.02-3.32-0.03-4.98-0.04
		C195.45,217.38,195.37,208.77,195.32,200.16z"/>
	<path class="st6" d="M174.22,246.19c3.62-0.98,8-1,11.01,1.53c1.89,1.53,2.34,4.04,2.97,6.25c-1.66,0.02-3.32,0.03-4.97,0.03
		c0.08-5.77-11.46-5.35-8.92,0.71c3.84,2.64,9.43,1.64,12.87,5.08c3.04,3.76,1.5,10.52-3.24,12.13c-3.82,1.32-8.43,1.25-11.89-1
		c-2.34-1.54-3.05-4.39-3.34-7c1.93,0.34,4.85-0.68,5.47,1.94c1.22,2.98,5.26,2.88,7.82,1.95c2.28-0.56,2.77-4.37,0.39-5.14
		c-3.63-1.59-7.87-1.58-11.23-3.81C167.62,255.12,169.02,247.65,174.22,246.19z"/>
	<g>
		<path class="st6" d="M193.74,246.17c4.58,0.33,9.25-0.4,13.77,0.56c6.43,2.19,6.19,13.13-0.01,15.45
			c-2.9,0.86-5.97,0.51-8.95,0.57c-0.03,3.07-0.02,6.14,0.1,9.21c-1.67,0.06-3.33,0.09-4.99,0.15
			C193.74,263.46,193.6,254.82,193.74,246.17z M198.56,250.55c-0.02,2.63-0.02,5.25-0.01,7.88c2.39-0.09,4.89,0.21,7.18-0.67
			c1.8-1.23,1.33-3.68,1.08-5.52C204.82,249.86,201.27,250.77,198.56,250.55z"/>
	</g>
</g>
</svg>
